<svg xmlns="http://www.w3.org/2000/svg" viewBox="0 0 48 48">
  <path fill="#FFC107" d="M43.6 20.5H42V20H24v8h11.3c-1.6 4-5.5 6.8-10.3 6.8A11.9 11.9 0 0112 23.9a11.9 11.9 0 0122.7-6.4l5.8-5.8A19.9 19.9 0 004 23.9 20 20 0 0024 44a20 20 0 0019.6-23.5z"></path>
  <path fill="#FF3D00" d="M6.3 14.7l6.6 4.8A11.9 11.9 0 0124 12a11.9 11.9 0 017.5 2.7l5.7-5.7A20 20 0 006 24c0-3.4.8-6.6 2.3-9.3z"></path>
  <path fill="#4CAF50" d="M24 44a20 20 0 0014.2-5.9l-6.5-5.4A11.8 11.8 0 0112 23.9l-6.6 4.8A20 20 0 0024 44z"></path>
  <path fill="#1976D2" d="M43.6 20.5H42V20H24v8h11.3c-.8 2-2.2 3.8-3.9 5.1l6.5 5.4a19.9 19.9 0 005.7-18z"></path>
</svg>
